%TF.GenerationSoftware,KiCad,Pcbnew,(6.0.11)*%
%TF.CreationDate,2023-08-08T11:00:45-03:00*%
%TF.ProjectId,qds-cv-jig-hw,7164732d-6376-42d6-9a69-672d68772e6b,rev?*%
%TF.SameCoordinates,Original*%
%TF.FileFunction,Copper,L2,Bot*%
%TF.FilePolarity,Positive*%
%FSLAX46Y46*%
G04 Gerber Fmt 4.6, Leading zero omitted, Abs format (unit mm)*
G04 Created by KiCad (PCBNEW (6.0.11)) date 2023-08-08 11:00:45*
%MOMM*%
%LPD*%
G01*
G04 APERTURE LIST*
G04 Aperture macros list*
%AMRoundRect*
0 Rectangle with rounded corners*
0 $1 Rounding radius*
0 $2 $3 $4 $5 $6 $7 $8 $9 X,Y pos of 4 corners*
0 Add a 4 corners polygon primitive as box body*
4,1,4,$2,$3,$4,$5,$6,$7,$8,$9,$2,$3,0*
0 Add four circle primitives for the rounded corners*
1,1,$1+$1,$2,$3*
1,1,$1+$1,$4,$5*
1,1,$1+$1,$6,$7*
1,1,$1+$1,$8,$9*
0 Add four rect primitives between the rounded corners*
20,1,$1+$1,$2,$3,$4,$5,0*
20,1,$1+$1,$4,$5,$6,$7,0*
20,1,$1+$1,$6,$7,$8,$9,0*
20,1,$1+$1,$8,$9,$2,$3,0*%
G04 Aperture macros list end*
%TA.AperFunction,ComponentPad*%
%ADD10C,15.000000*%
%TD*%
%TA.AperFunction,ComponentPad*%
%ADD11C,6.400000*%
%TD*%
%TA.AperFunction,ComponentPad*%
%ADD12O,3.600000X2.080000*%
%TD*%
%TA.AperFunction,ComponentPad*%
%ADD13RoundRect,0.249999X-1.550001X0.790001X-1.550001X-0.790001X1.550001X-0.790001X1.550001X0.790001X0*%
%TD*%
%TA.AperFunction,ComponentPad*%
%ADD14R,1.700000X1.700000*%
%TD*%
%TA.AperFunction,ComponentPad*%
%ADD15O,1.700000X1.700000*%
%TD*%
%TA.AperFunction,Conductor*%
%ADD16C,1.000000*%
%TD*%
G04 APERTURE END LIST*
D10*
%TO.P,H7,1,1*%
%TO.N,GND*%
X80000000Y-130000000D03*
%TD*%
%TO.P,H6,1,1*%
%TO.N,GND*%
X80000000Y-97000000D03*
%TD*%
%TO.P,H5,1,1*%
%TO.N,GND*%
X80000000Y-64000000D03*
%TD*%
D11*
%TO.P,H4,1,1*%
%TO.N,GND*%
X222000000Y-155000000D03*
%TD*%
%TO.P,H3,1,1*%
%TO.N,GND*%
X222000000Y-40000000D03*
%TD*%
%TO.P,H2,1,1*%
%TO.N,GND*%
X68000000Y-155000000D03*
%TD*%
%TO.P,H1,1,1*%
%TO.N,GND*%
X68000000Y-40000000D03*
%TD*%
D12*
%TO.P,J13,8,Pin_8*%
%TO.N,Net-(J12-Pad2)*%
X220000000Y-115280000D03*
%TO.P,J13,7,Pin_7*%
%TO.N,Net-(J11-Pad2)*%
X220000000Y-110200000D03*
%TO.P,J13,6,Pin_6*%
%TO.N,Net-(J10-Pad2)*%
X220000000Y-105120000D03*
%TO.P,J13,5,Pin_5*%
%TO.N,Net-(J13-Pad5)*%
X220000000Y-100040000D03*
%TO.P,J13,4,Pin_4*%
%TO.N,Net-(J13-Pad4)*%
X220000000Y-94960000D03*
%TO.P,J13,3,Pin_3*%
%TO.N,Net-(J13-Pad3)*%
X220000000Y-89880000D03*
%TO.P,J13,2,Pin_2*%
%TO.N,Net-(J13-Pad2)*%
X220000000Y-84800000D03*
D13*
%TO.P,J13,1,Pin_1*%
%TO.N,Net-(J13-Pad1)*%
X220000000Y-79720000D03*
%TD*%
D14*
%TO.P,J12,1,Pin_1*%
%TO.N,Net-(J1-Pad1)*%
X158725000Y-138080000D03*
D15*
%TO.P,J12,2,Pin_2*%
%TO.N,Net-(J12-Pad2)*%
X161265000Y-138080000D03*
%TD*%
D14*
%TO.P,J9,1,Pin_1*%
%TO.N,Net-(J2-Pad2)*%
X158725000Y-103331428D03*
D15*
%TO.P,J9,2,Pin_2*%
%TO.N,Net-(J13-Pad5)*%
X161265000Y-103331428D03*
%TD*%
D14*
%TO.P,J7,1,Pin_1*%
%TO.N,Net-(J1-Pad2)*%
X158725000Y-80165714D03*
D15*
%TO.P,J7,2,Pin_2*%
%TO.N,Net-(J13-Pad3)*%
X161265000Y-80165714D03*
%TD*%
D14*
%TO.P,J5,1,Pin_1*%
%TO.N,Net-(J1-Pad1)*%
X158725000Y-57000000D03*
D15*
%TO.P,J5,2,Pin_2*%
%TO.N,Net-(J13-Pad1)*%
X161265000Y-57000000D03*
%TD*%
D12*
%TO.P,J4,2,Pin_2*%
%TO.N,Net-(J1-Pad1)*%
X114277500Y-138080000D03*
D13*
%TO.P,J4,1,Pin_1*%
%TO.N,Net-(J10-Pad1)*%
X114277500Y-133000000D03*
%TD*%
D12*
%TO.P,J3,2,Pin_2*%
%TO.N,Net-(J10-Pad1)*%
X114277500Y-112746666D03*
D13*
%TO.P,J3,1,Pin_1*%
%TO.N,Net-(J2-Pad2)*%
X114277500Y-107666666D03*
%TD*%
%TO.P,J1,1,Pin_1*%
%TO.N,Net-(J1-Pad1)*%
X114277500Y-57000000D03*
D12*
%TO.P,J1,2,Pin_2*%
%TO.N,Net-(J1-Pad2)*%
X114277500Y-62080000D03*
%TD*%
D13*
%TO.P,J2,1,Pin_1*%
%TO.N,Net-(J1-Pad2)*%
X114277500Y-82333333D03*
D12*
%TO.P,J2,2,Pin_2*%
%TO.N,Net-(J2-Pad2)*%
X114277500Y-87413333D03*
%TD*%
D14*
%TO.P,J11,1,Pin_1*%
%TO.N,Net-(J10-Pad1)*%
X158725000Y-126497142D03*
D15*
%TO.P,J11,2,Pin_2*%
%TO.N,Net-(J11-Pad2)*%
X161265000Y-126497142D03*
%TD*%
D14*
%TO.P,J10,1,Pin_1*%
%TO.N,Net-(J10-Pad1)*%
X158725000Y-114914285D03*
D15*
%TO.P,J10,2,Pin_2*%
%TO.N,Net-(J10-Pad2)*%
X161265000Y-114914285D03*
%TD*%
D14*
%TO.P,J6,1,Pin_1*%
%TO.N,Net-(J1-Pad2)*%
X158725000Y-68582857D03*
D15*
%TO.P,J6,2,Pin_2*%
%TO.N,Net-(J13-Pad2)*%
X161265000Y-68582857D03*
%TD*%
D14*
%TO.P,J8,1,Pin_1*%
%TO.N,Net-(J2-Pad2)*%
X158725000Y-91748571D03*
D15*
%TO.P,J8,2,Pin_2*%
%TO.N,Net-(J13-Pad4)*%
X161265000Y-91748571D03*
%TD*%
D16*
%TO.N,Net-(J1-Pad1)*%
X107080000Y-138080000D02*
X114277500Y-138080000D01*
X106500000Y-57000000D02*
X103370000Y-60130000D01*
X103370000Y-60130000D02*
X103370000Y-134370000D01*
X114277500Y-57000000D02*
X106500000Y-57000000D01*
X103370000Y-134370000D02*
X107080000Y-138080000D01*
%TO.N,Net-(J10-Pad1)*%
X114277500Y-128722500D02*
X122250000Y-120750000D01*
X114277500Y-133000000D02*
X114277500Y-128722500D01*
X122250000Y-120750000D02*
X114277500Y-112777500D01*
X114277500Y-112777500D02*
X114277500Y-112746666D01*
X143750000Y-120750000D02*
X122250000Y-120750000D01*
X143750000Y-120750000D02*
X149497142Y-126497142D01*
X149497142Y-126497142D02*
X158725000Y-126497142D01*
X149585715Y-114914285D02*
X143750000Y-120750000D01*
X158725000Y-114914285D02*
X149585715Y-114914285D01*
%TO.N,Net-(J2-Pad2)*%
X124444166Y-97500000D02*
X124364167Y-97500000D01*
X124364167Y-97500000D02*
X114277500Y-87413333D01*
X124444166Y-97500000D02*
X114277500Y-107666666D01*
X143500000Y-97500000D02*
X124444166Y-97500000D01*
X149331428Y-103331428D02*
X158725000Y-103331428D01*
X149251429Y-91748571D02*
X143500000Y-97500000D01*
X143500000Y-97500000D02*
X149331428Y-103331428D01*
X158725000Y-91748571D02*
X149251429Y-91748571D01*
%TO.N,Net-(J1-Pad2)*%
X122000000Y-74500000D02*
X114277500Y-82222500D01*
X114277500Y-82222500D02*
X114277500Y-82333333D01*
X143500000Y-74500000D02*
X122000000Y-74500000D01*
X114277500Y-62080000D02*
X114277500Y-66777500D01*
X114277500Y-66777500D02*
X122000000Y-74500000D01*
X149165714Y-80165714D02*
X158725000Y-80165714D01*
X143500000Y-74500000D02*
X149165714Y-80165714D01*
X149417143Y-68582857D02*
X143500000Y-74500000D01*
X158725000Y-68582857D02*
X149417143Y-68582857D01*
%TO.N,Net-(J11-Pad2)*%
X210300000Y-110200000D02*
X220000000Y-110200000D01*
X194002858Y-126497142D02*
X210300000Y-110200000D01*
X161265000Y-126497142D02*
X194002858Y-126497142D01*
%TO.N,Net-(J10-Pad2)*%
X190585715Y-114914285D02*
X200380000Y-105120000D01*
X161265000Y-114914285D02*
X190585715Y-114914285D01*
X200380000Y-105120000D02*
X220000000Y-105120000D01*
%TO.N,Net-(J12-Pad2)*%
X197200000Y-138080000D02*
X220000000Y-115280000D01*
X161265000Y-138080000D02*
X197200000Y-138080000D01*
%TO.N,Net-(J13-Pad5)*%
X188960000Y-100040000D02*
X220000000Y-100040000D01*
X185668572Y-103331428D02*
X188960000Y-100040000D01*
X161265000Y-103331428D02*
X185668572Y-103331428D01*
%TO.N,Net-(J13-Pad1)*%
X197000000Y-57000000D02*
X219720000Y-79720000D01*
X161265000Y-57000000D02*
X197000000Y-57000000D01*
X219720000Y-79720000D02*
X220000000Y-79720000D01*
%TO.N,Net-(J13-Pad4)*%
X189210000Y-94960000D02*
X220000000Y-94960000D01*
X161265000Y-91748571D02*
X185998571Y-91748571D01*
X185998571Y-91748571D02*
X189210000Y-94960000D01*
%TO.N,Net-(J13-Pad2)*%
X209800000Y-84800000D02*
X220000000Y-84800000D01*
X193582857Y-68582857D02*
X209800000Y-84800000D01*
X161265000Y-68582857D02*
X193582857Y-68582857D01*
%TO.N,Net-(J13-Pad3)*%
X199880000Y-89880000D02*
X220000000Y-89880000D01*
X190165714Y-80165714D02*
X199880000Y-89880000D01*
X161265000Y-80165714D02*
X190165714Y-80165714D01*
%TO.N,Net-(J1-Pad1)*%
X114277500Y-138080000D02*
X158725000Y-138080000D01*
X114277500Y-57000000D02*
X158725000Y-57000000D01*
%TD*%
%TA.AperFunction,Conductor*%
%TO.N,GND*%
G36*
X226941121Y-35021002D02*
G01*
X226987614Y-35074658D01*
X226999000Y-35127000D01*
X226999000Y-78171234D01*
X226978998Y-78239355D01*
X226925342Y-78285848D01*
X226855068Y-78295952D01*
X226790488Y-78266458D01*
X226752104Y-78206732D01*
X226748078Y-78187680D01*
X226726018Y-78020116D01*
X226726017Y-78020110D01*
X226725659Y-78017391D01*
X226626425Y-77569775D01*
X226488557Y-77132512D01*
X226313102Y-76708928D01*
X226101398Y-76302248D01*
X225855055Y-75915567D01*
X225853391Y-75913399D01*
X225853383Y-75913387D01*
X225577630Y-75554020D01*
X225575948Y-75551828D01*
X225574090Y-75549800D01*
X225574083Y-75549792D01*
X225268052Y-75215819D01*
X225266201Y-75213799D01*
X225061171Y-75025923D01*
X224930208Y-74905917D01*
X224930200Y-74905910D01*
X224928172Y-74904052D01*
X224894512Y-74878224D01*
X224566613Y-74626617D01*
X224566601Y-74626609D01*
X224564433Y-74624945D01*
X224177751Y-74378602D01*
X223771072Y-74166898D01*
X223347488Y-73991443D01*
X223344868Y-73990617D01*
X223344860Y-73990614D01*
X222912855Y-73854404D01*
X222912850Y-73854403D01*
X222910225Y-73853575D01*
X222462609Y-73754341D01*
X222459890Y-73753983D01*
X222459884Y-73753982D01*
X222289373Y-73731534D01*
X222008048Y-73694497D01*
X222005299Y-73694377D01*
X222005288Y-73694376D01*
X221665940Y-73679560D01*
X221665936Y-73679560D01*
X221664564Y-73679500D01*
X221510571Y-73679500D01*
X221442450Y-73659498D01*
X221421476Y-73642595D01*
X211221948Y-63443066D01*
X200995407Y-53216525D01*
X200990866Y-53211741D01*
X200935263Y-53149988D01*
X200933501Y-53148031D01*
X200925304Y-53140333D01*
X200826812Y-53047843D01*
X200823970Y-53045088D01*
X200805742Y-53026860D01*
X200744821Y-52970840D01*
X200743996Y-52970073D01*
X200597382Y-52832393D01*
X200578387Y-52817337D01*
X200571375Y-52811348D01*
X200555486Y-52796738D01*
X200553543Y-52794951D01*
X200394637Y-52671691D01*
X200393598Y-52670876D01*
X200362226Y-52646011D01*
X200236029Y-52545988D01*
X200233842Y-52544535D01*
X200233831Y-52544527D01*
X200217027Y-52533363D01*
X200215855Y-52532585D01*
X200208354Y-52527195D01*
X200191298Y-52513964D01*
X200191288Y-52513957D01*
X200189210Y-52512345D01*
X200187006Y-52510914D01*
X200186998Y-52510908D01*
X200020542Y-52402811D01*
X200019439Y-52402086D01*
X199854182Y-52292290D01*
X199851977Y-52290825D01*
X199830727Y-52279143D01*
X199822827Y-52274414D01*
X199804724Y-52262658D01*
X199804723Y-52262657D01*
X199802508Y-52261219D01*
X199625369Y-52166238D01*
X199624246Y-52165629D01*
X199622657Y-52164755D01*
X199447922Y-52068694D01*
X199425786Y-52058839D01*
X199417488Y-52054774D01*
X199398477Y-52044580D01*
X199396148Y-52043331D01*
X199230575Y-51971680D01*
X199211594Y-51963466D01*
X199210387Y-51962936D01*
X199029111Y-51882227D01*
X199029098Y-51882222D01*
X199026695Y-51881152D01*
X199003806Y-51873182D01*
X198995219Y-51869833D01*
X198975419Y-51861264D01*
X198975417Y-51861263D01*
X198972981Y-51860209D01*
X198782275Y-51796030D01*
X198781094Y-51795625D01*
X198591253Y-51729515D01*
X198588701Y-51728860D01*
X198588692Y-51728857D01*
X198567788Y-51723490D01*
X198558936Y-51720868D01*
X198557869Y-51720509D01*
X198535975Y-51713141D01*
X198340576Y-51665147D01*
X198339427Y-51664858D01*
X198203762Y-51630025D01*
X198147225Y-51615508D01*
X198147222Y-51615507D01*
X198144650Y-51614847D01*
X198142039Y-51614405D01*
X198142028Y-51614403D01*
X198120767Y-51610807D01*
X198111727Y-51608935D01*
X198090756Y-51603784D01*
X198090750Y-51603783D01*
X198088194Y-51603155D01*
X198085603Y-51602745D01*
X198085595Y-51602743D01*
X197999147Y-51589051D01*
X197889422Y-51571673D01*
X197888291Y-51571487D01*
X197769503Y-51551395D01*
X197692632Y-51538393D01*
X197692625Y-51538392D01*
X197690017Y-51537951D01*
X197687384Y-51537730D01*
X197687377Y-51537729D01*
X197665879Y-51535924D01*
X197656711Y-51534815D01*
X197635385Y-51531437D01*
X197635379Y-51531436D01*
X197632782Y-51531025D01*
X197630157Y-51530832D01*
X197630155Y-51530832D01*
X197432236Y-51516298D01*
X197430921Y-51516194D01*
X197234740Y-51499720D01*
X197234734Y-51499720D01*
X197232117Y-51499500D01*
X197208114Y-51499500D01*
X197198886Y-51499162D01*
X197172931Y-51497256D01*
X196964554Y-51499438D01*
X196959301Y-51499493D01*
X196957982Y-51499500D01*
X163291657Y-51499500D01*
X163244767Y-51490450D01*
X163219607Y-51480361D01*
X162760763Y-51338764D01*
X162291860Y-51235240D01*
X161816051Y-51170485D01*
X161813483Y-51170348D01*
X161813481Y-51170348D01*
X161339116Y-51145072D01*
X161339106Y-51145072D01*
X161336537Y-51144935D01*
X161333963Y-51145009D01*
X161333952Y-51145009D01*
X161062943Y-51152816D01*
X160856541Y-51158762D01*
X160754416Y-51170127D01*
X160403100Y-51209222D01*
X160374354Y-51209122D01*
X160145840Y-51182076D01*
X159941597Y-51157902D01*
X159939048Y-51157809D01*
X159939041Y-51157808D01*
X159851466Y-51154597D01*
X159712453Y-51149500D01*
X158725838Y-51149500D01*
X157737548Y-51149501D01*
X157616545Y-51153937D01*
X157510958Y-51157808D01*
X157510950Y-51157809D01*
X157508403Y-51157902D01*
X157505882Y-51158200D01*
X157505874Y-51158201D01*
X157303084Y-51182203D01*
X157066086Y-51210254D01*
X157063367Y-51210825D01*
X157063358Y-51210826D01*
X156848130Y-51255986D01*
X156630173Y-51301718D01*
X156627518Y-51302527D01*
X156627511Y-51302529D01*
X156508621Y-51338764D01*
X156204116Y-51431570D01*
X156201539Y-51432614D01*
X156201530Y-51432617D01*
X156059158Y-51490284D01*
X156011856Y-51499500D01*
X118180451Y-51499500D01*
X118122270Y-51485263D01*
X118112854Y-51480361D01*
X118048572Y-51446898D01*
X117624988Y-51271443D01*
X117622368Y-51270617D01*
X117622360Y-51270614D01*
X117190355Y-51134404D01*
X117190350Y-51134403D01*
X117187725Y-51133575D01*
X116740109Y-51034341D01*
X116737390Y-51033983D01*
X116737384Y-51033982D01*
X116566873Y-51011534D01*
X116285548Y-50974497D01*
X116282799Y-50974377D01*
X116282788Y-50974376D01*
X115943440Y-50959560D01*
X115943436Y-50959560D01*
X115942064Y-50959500D01*
X112612936Y-50959500D01*
X112611564Y-50959560D01*
X112611560Y-50959560D01*
X112272212Y-50974376D01*
X112272201Y-50974377D01*
X112269452Y-50974497D01*
X111988127Y-51011534D01*
X111817616Y-51033982D01*
X111817610Y-51033983D01*
X111814891Y-51034341D01*
X111367275Y-51133575D01*
X111364650Y-51134403D01*
X111364645Y-51134404D01*
X110932640Y-51270614D01*
X110932632Y-51270617D01*
X110930012Y-51271443D01*
X110506428Y-51446898D01*
X110432726Y-51485265D01*
X110374549Y-51499500D01*
X106649831Y-51499500D01*
X106643237Y-51499327D01*
X106560292Y-51494980D01*
X106560284Y-51494980D01*
X106557652Y-51494842D01*
X106414925Y-51499327D01*
X106411393Y-51499438D01*
X106407436Y-51499500D01*
X106381632Y-51499500D01*
X106299078Y-51502960D01*
X106297778Y-51503009D01*
X106096790Y-51509324D01*
X106072711Y-51512110D01*
X106063547Y-51512831D01*
X106039315Y-51513847D01*
X105839787Y-51539053D01*
X105838593Y-51539198D01*
X105638756Y-51562320D01*
X105636185Y-51562838D01*
X105636175Y-51562840D01*
X105615015Y-51567107D01*
X105605902Y-51568599D01*
X105584499Y-51571303D01*
X105584481Y-51571306D01*
X105581861Y-51571637D01*
X105579288Y-51572184D01*
X105579258Y-51572189D01*
X105385136Y-51613452D01*
X105383853Y-51613718D01*
X105374975Y-51615508D01*
X105189355Y-51652935D01*
X105189351Y-51652936D01*
X105186762Y-51653458D01*
X105184232Y-51654193D01*
X105184224Y-51654195D01*
X105163493Y-51660218D01*
X105154539Y-51662468D01*
X105130848Y-51667503D01*
X104938338Y-51725626D01*
X104937200Y-51725963D01*
X104743982Y-51782098D01*
X104721355Y-51790784D01*
X104712632Y-51793770D01*
X104689438Y-51800773D01*
X104686989Y-51801743D01*
X104686985Y-51801744D01*
X104502505Y-51874784D01*
X104501277Y-51875263D01*
X104423261Y-51905211D01*
X104313517Y-51947338D01*
X104311144Y-51948485D01*
X104311142Y-51948486D01*
X104291701Y-51957884D01*
X104283249Y-51961594D01*
X104260727Y-51970511D01*
X104258373Y-51971680D01*
X104258372Y-51971680D01*
X104080545Y-52059954D01*
X104079364Y-52060532D01*
X103898390Y-52148019D01*
X103877523Y-52160359D01*
X103869444Y-52164746D01*
X103847724Y-52175528D01*
X103845457Y-52176901D01*
X103675682Y-52279720D01*
X103674550Y-52280397D01*
X103501511Y-52382732D01*
X103499354Y-52384265D01*
X103481760Y-52396767D01*
X103474051Y-52401831D01*
X103455597Y-52413008D01*
X103455591Y-52413012D01*
X103453324Y-52414385D01*
X103290635Y-52532586D01*
X103290625Y-52532593D01*
X103289574Y-52533348D01*
X103125663Y-52649833D01*
X103123641Y-52651542D01*
X103123638Y-52651544D01*
X103107161Y-52665468D01*
X103099897Y-52671164D01*
X103080295Y-52685406D01*
X103078294Y-52687133D01*
X103078293Y-52687134D01*
X102928126Y-52816755D01*
X102927123Y-52817612D01*
X102774690Y-52946428D01*
X102757714Y-52963404D01*
X102750950Y-52969690D01*
X102733245Y-52984972D01*
X102733238Y-52984979D01*
X102731253Y-52986692D01*
X102581714Y-53139396D01*
X102580785Y-53140333D01*
X99586524Y-56134594D01*
X99581740Y-56139135D01*
X99518031Y-56196499D01*
X99516228Y-56198419D01*
X99516227Y-56198420D01*
X99417843Y-56303188D01*
X99415088Y-56306030D01*
X99396860Y-56324258D01*
X99340840Y-56385179D01*
X99340073Y-56386004D01*
X99202393Y-56532618D01*
X99187337Y-56551613D01*
X99181351Y-56558621D01*
X99164951Y-56576457D01*
X99163334Y-56578542D01*
X99163332Y-56578544D01*
X99041691Y-56735363D01*
X99040876Y-56736402D01*
X98915988Y-56893971D01*
X98914535Y-56896158D01*
X98914527Y-56896169D01*
X98902586Y-56914143D01*
X98897195Y-56921646D01*
X98883964Y-56938702D01*
X98883957Y-56938712D01*
X98882345Y-56940790D01*
X98880914Y-56942994D01*
X98880908Y-56943002D01*
X98772811Y-57109458D01*
X98772087Y-57110559D01*
X98660825Y-57278023D01*
X98649143Y-57299273D01*
X98644414Y-57307173D01*
X98631219Y-57327492D01*
X98629971Y-57329820D01*
X98536258Y-57504594D01*
X98535645Y-57505724D01*
X98438694Y-57682078D01*
X98437623Y-57684484D01*
X98428839Y-57704214D01*
X98424774Y-57712511D01*
X98413331Y-57733852D01*
X98412283Y-57736275D01*
X98412281Y-57736278D01*
X98333466Y-57918406D01*
X98332936Y-57919613D01*
X98252227Y-58100889D01*
X98252222Y-58100902D01*
X98251152Y-58103305D01*
X98243182Y-58126194D01*
X98239835Y-58134776D01*
X98230209Y-58157019D01*
X98229364Y-58159531D01*
X98166040Y-58347695D01*
X98165625Y-58348906D01*
X98099515Y-58538747D01*
X98098860Y-58541299D01*
X98098857Y-58541308D01*
X98093490Y-58562212D01*
X98090868Y-58571064D01*
X98083141Y-58594025D01*
X98082510Y-58596595D01*
X98035162Y-58789363D01*
X98034858Y-58790573D01*
X97984847Y-58985350D01*
X97984405Y-58987961D01*
X97984403Y-58987972D01*
X97980807Y-59009233D01*
X97978935Y-59018272D01*
X97973155Y-59041806D01*
X97972745Y-59044397D01*
X97972743Y-59044405D01*
X97941685Y-59240502D01*
X97941487Y-59241709D01*
X97907951Y-59439983D01*
X97907730Y-59442616D01*
X97907729Y-59442623D01*
X97905924Y-59464121D01*
X97904815Y-59473287D01*
X97901025Y-59497218D01*
X97900832Y-59499843D01*
X97900832Y-59499845D01*
X97886298Y-59697764D01*
X97886194Y-59699079D01*
X97869500Y-59897883D01*
X97869500Y-59921886D01*
X97869162Y-59931114D01*
X97867256Y-59957069D01*
X97867284Y-59959707D01*
X97869493Y-60170699D01*
X97869500Y-60172018D01*
X97869500Y-134220154D01*
X97869327Y-134226748D01*
X97864841Y-134312348D01*
X97864924Y-134314984D01*
X97869438Y-134458629D01*
X97869500Y-134462587D01*
X97869500Y-134488368D01*
X97869556Y-134489697D01*
X97872958Y-134570866D01*
X97873006Y-134572161D01*
X97879324Y-134773210D01*
X97882110Y-134797289D01*
X97882831Y-134806453D01*
X97883847Y-134830685D01*
X97884179Y-134833311D01*
X97909046Y-135030151D01*
X97909198Y-135031407D01*
X97932320Y-135231244D01*
X97932838Y-135233815D01*
X97932840Y-135233825D01*
X97937107Y-135254985D01*
X97938599Y-135264098D01*
X97941303Y-135285501D01*
X97941306Y-135285519D01*
X97941637Y-135288139D01*
X97942183Y-135290710D01*
X97942185Y-135290719D01*
X97983455Y-135484874D01*
X97983711Y-135486114D01*
X98023458Y-135683237D01*
X98024191Y-135685759D01*
X98030216Y-135706498D01*
X98032464Y-135715450D01*
X98036954Y-135736571D01*
X98037503Y-135739152D01*
X98038264Y-135741672D01*
X98095609Y-135931608D01*
X98095966Y-135932812D01*
X98152098Y-136126018D01*
X98153043Y-136128479D01*
X98160782Y-136148640D01*
X98163770Y-136157368D01*
X98170773Y-136180562D01*
X98232560Y-136336618D01*
X98244817Y-136367576D01*
X98245296Y-136368806D01*
X98317338Y-136556482D01*
X98318486Y-136558858D01*
X98318490Y-136558866D01*
X98327880Y-136578290D01*
X98331590Y-136586741D01*
X98340511Y-136609273D01*
X98429981Y-136789507D01*
X98430487Y-136790540D01*
X98518019Y-136971610D01*
X98519357Y-136973873D01*
X98519367Y-136973891D01*
X98530345Y-136992452D01*
X98534754Y-137000571D01*
X98544351Y-137019906D01*
X98544356Y-137019916D01*
X98545528Y-137022276D01*
X98546902Y-137024544D01*
X98649734Y-137194341D01*
X98650411Y-137195473D01*
X98752732Y-137368488D01*
X98766772Y-137388244D01*
X98771826Y-137395938D01*
X98784385Y-137416676D01*
X98785934Y-137418808D01*
X98902599Y-137579384D01*
X98903354Y-137580435D01*
X99019832Y-137744336D01*
X99021531Y-137746346D01*
X99035472Y-137762843D01*
X99041166Y-137770105D01*
X99055406Y-137789705D01*
X99057131Y-137791703D01*
X99186775Y-137941897D01*
X99187632Y-137942900D01*
X99316428Y-138095309D01*
X99333398Y-138112279D01*
X99339683Y-138119042D01*
X99356692Y-138138747D01*
X99508527Y-138287435D01*
X99509397Y-138288287D01*
X99510334Y-138289215D01*
X103084584Y-141863465D01*
X103089125Y-141868249D01*
X103146499Y-141931969D01*
X103148419Y-141933772D01*
X103148420Y-141933773D01*
X103253205Y-142032173D01*
X103256047Y-142034928D01*
X103274258Y-142053139D01*
X103335170Y-142109151D01*
X103335933Y-142109860D01*
X103482618Y-142247607D01*
X103501612Y-142262661D01*
X103508620Y-142268647D01*
X103526457Y-142285049D01*
X103647017Y-142378564D01*
X103685337Y-142408289D01*
X103686376Y-142409104D01*
X103710809Y-142428469D01*
X103843971Y-142534012D01*
X103862964Y-142546631D01*
X103864154Y-142547422D01*
X103871650Y-142552808D01*
X103890790Y-142567654D01*
X104039252Y-142664066D01*
X104059421Y-142677164D01*
X104060522Y-142677888D01*
X104228023Y-142789175D01*
X104246967Y-142799589D01*
X104249246Y-142800842D01*
X104257168Y-142805583D01*
X104271094Y-142814626D01*
X104277492Y-142818781D01*
X104439501Y-142905649D01*
X104454594Y-142913742D01*
X104455724Y-142914355D01*
X104632078Y-143011306D01*
X104634484Y-143012377D01*
X104654214Y-143021161D01*
X104662511Y-143025226D01*
X104683852Y-143036669D01*
X104686275Y-143037717D01*
X104686278Y-143037719D01*
X104868406Y-143116534D01*
X104869613Y-143117064D01*
X105050889Y-143197773D01*
X105050902Y-143197778D01*
X105053305Y-143198848D01*
X105076194Y-143206818D01*
X105084776Y-143210165D01*
X105107019Y-143219791D01*
X105297725Y-143283970D01*
X105298906Y-143284375D01*
X105488747Y-143350485D01*
X105491299Y-143351140D01*
X105491308Y-143351143D01*
X105512212Y-143356510D01*
X105521064Y-143359132D01*
X105544025Y-143366859D01*
X105739385Y-143414843D01*
X105740534Y-143415132D01*
X105935350Y-143465153D01*
X105959268Y-143469199D01*
X105968263Y-143471061D01*
X105991806Y-143476844D01*
X105994397Y-143477254D01*
X105994405Y-143477256D01*
X106080485Y-143490890D01*
X106190526Y-143508318D01*
X106191656Y-143508504D01*
X106389983Y-143542049D01*
X106407932Y-143543556D01*
X106414121Y-143544076D01*
X106423287Y-143545185D01*
X106440845Y-143547966D01*
X106447218Y-143548975D01*
X106449843Y-143549168D01*
X106449845Y-143549168D01*
X106647764Y-143563702D01*
X106649079Y-143563806D01*
X106845260Y-143580280D01*
X106845266Y-143580280D01*
X106847883Y-143580500D01*
X106871886Y-143580500D01*
X106881114Y-143580838D01*
X106907069Y-143582744D01*
X107120698Y-143580507D01*
X107122018Y-143580500D01*
X110987066Y-143580500D01*
X111042103Y-143593156D01*
X111094897Y-143618792D01*
X111094909Y-143618797D01*
X111097178Y-143619899D01*
X111273212Y-143688532D01*
X111546918Y-143795246D01*
X111546923Y-143795248D01*
X111549268Y-143796162D01*
X112014038Y-143935600D01*
X112271729Y-143990844D01*
X112486033Y-144036787D01*
X112486042Y-144036789D01*
X112488493Y-144037314D01*
X112688850Y-144063691D01*
X112967070Y-144100320D01*
X112967075Y-144100320D01*
X112969578Y-144100650D01*
X112972092Y-144100777D01*
X112972099Y-144100778D01*
X113359827Y-144120420D01*
X113359844Y-144120420D01*
X113361415Y-144120500D01*
X115162763Y-144120500D01*
X115362079Y-144112495D01*
X115519810Y-144106160D01*
X115519815Y-144106160D01*
X115522345Y-144106058D01*
X116004067Y-144047763D01*
X116479561Y-143951022D01*
X116481995Y-143950320D01*
X116482001Y-143950318D01*
X116943335Y-143817161D01*
X116943342Y-143817159D01*
X116945766Y-143816459D01*
X117399677Y-143644941D01*
X117510435Y-143592586D01*
X117564282Y-143580500D01*
X156011856Y-143580500D01*
X156059158Y-143589716D01*
X156201530Y-143647383D01*
X156201539Y-143647386D01*
X156204116Y-143648430D01*
X156332919Y-143687686D01*
X156627511Y-143777471D01*
X156627518Y-143777473D01*
X156630173Y-143778282D01*
X156848129Y-143824014D01*
X157063358Y-143869174D01*
X157063367Y-143869175D01*
X157066086Y-143869746D01*
X157508403Y-143922098D01*
X157510952Y-143922191D01*
X157510959Y-143922192D01*
X157598534Y-143925403D01*
X157737547Y-143930500D01*
X158724162Y-143930500D01*
X159712452Y-143930499D01*
X159833455Y-143926063D01*
X159939042Y-143922192D01*
X159939050Y-143922191D01*
X159941597Y-143922098D01*
X159944118Y-143921800D01*
X159944126Y-143921799D01*
X160383914Y-143869746D01*
X160383959Y-143870125D01*
X160421208Y-143870075D01*
X160444275Y-143873790D01*
X160571685Y-143894312D01*
X160777459Y-143910326D01*
X161047859Y-143931369D01*
X161047867Y-143931369D01*
X161050433Y-143931569D01*
X161053004Y-143931558D01*
X161053010Y-143931558D01*
X161290528Y-143930521D01*
X161530623Y-143929474D01*
X162009027Y-143888040D01*
X162011577Y-143887606D01*
X162011588Y-143887605D01*
X162479887Y-143807977D01*
X162479890Y-143807976D01*
X162482427Y-143807545D01*
X162756492Y-143737432D01*
X162945135Y-143689173D01*
X162945139Y-143689172D01*
X162947640Y-143688532D01*
X163194422Y-143603317D01*
X163240514Y-143587401D01*
X163281640Y-143580500D01*
X197050154Y-143580500D01*
X197056748Y-143580673D01*
X197139708Y-143585021D01*
X197139716Y-143585021D01*
X197142348Y-143585159D01*
X197288629Y-143580562D01*
X197292587Y-143580500D01*
X197318368Y-143580500D01*
X197400903Y-143577041D01*
X197402161Y-143576994D01*
X197603210Y-143570676D01*
X197605809Y-143570375D01*
X197605813Y-143570375D01*
X197611475Y-143569720D01*
X197627289Y-143567890D01*
X197636453Y-143567169D01*
X197660685Y-143566153D01*
X197860213Y-143540947D01*
X197861407Y-143540802D01*
X198061244Y-143517680D01*
X198063815Y-143517162D01*
X198063825Y-143517160D01*
X198084985Y-143512893D01*
X198094098Y-143511401D01*
X198115501Y-143508697D01*
X198115519Y-143508694D01*
X198118139Y-143508363D01*
X198120710Y-143507817D01*
X198120719Y-143507815D01*
X198264484Y-143477256D01*
X198314918Y-143466536D01*
X198316114Y-143466289D01*
X198513237Y-143426542D01*
X198536497Y-143419784D01*
X198545450Y-143417536D01*
X198566571Y-143413046D01*
X198566580Y-143413044D01*
X198569152Y-143412497D01*
X198761674Y-143354372D01*
X198762812Y-143354034D01*
X198956018Y-143297902D01*
X198978645Y-143289216D01*
X198987368Y-143286230D01*
X199010562Y-143279227D01*
X199197576Y-143205183D01*
X199198806Y-143204704D01*
X199251724Y-143184391D01*
X199386482Y-143132662D01*
X199388858Y-143131514D01*
X199388866Y-143131510D01*
X199408290Y-143122120D01*
X199416742Y-143118410D01*
X199420142Y-143117064D01*
X199439273Y-143109489D01*
X199619507Y-143020019D01*
X199620540Y-143019513D01*
X199683223Y-142989211D01*
X199799230Y-142933132D01*
X199799239Y-142933127D01*
X199801610Y-142931981D01*
X199803873Y-142930643D01*
X199803891Y-142930633D01*
X199822452Y-142919655D01*
X199830563Y-142915251D01*
X199838753Y-142911185D01*
X199849906Y-142905649D01*
X199849916Y-142905644D01*
X199852276Y-142904472D01*
X200024341Y-142800266D01*
X200025473Y-142799589D01*
X200045568Y-142787705D01*
X200198488Y-142697268D01*
X200218244Y-142683228D01*
X200225938Y-142678174D01*
X200246676Y-142665615D01*
X200409404Y-142547386D01*
X200410456Y-142546631D01*
X200572187Y-142431695D01*
X200574336Y-142430168D01*
X200592843Y-142414528D01*
X200600105Y-142408834D01*
X200619705Y-142394594D01*
X200771897Y-142263225D01*
X200772900Y-142262368D01*
X200923291Y-142135277D01*
X200925309Y-142133572D01*
X200942279Y-142116602D01*
X200949043Y-142110316D01*
X200966755Y-142095028D01*
X200966762Y-142095021D01*
X200968747Y-142093308D01*
X201118333Y-141940556D01*
X201119262Y-141939619D01*
X221805900Y-121252982D01*
X221869874Y-121218607D01*
X222199569Y-121151529D01*
X222202061Y-121151022D01*
X222204495Y-121150320D01*
X222204501Y-121150318D01*
X222665835Y-121017161D01*
X222665842Y-121017159D01*
X222668266Y-121016459D01*
X223122177Y-120844941D01*
X223560871Y-120637571D01*
X223760434Y-120522817D01*
X223979321Y-120396952D01*
X223979330Y-120396946D01*
X223981520Y-120395687D01*
X224381416Y-120120846D01*
X224390441Y-120113512D01*
X224556969Y-119978178D01*
X224757981Y-119814820D01*
X225108791Y-119479579D01*
X225431585Y-119117283D01*
X225724283Y-118730267D01*
X225725637Y-118728142D01*
X225983646Y-118323149D01*
X225983650Y-118323142D01*
X225985000Y-118321023D01*
X226212056Y-117892188D01*
X226403989Y-117446525D01*
X226559562Y-116986904D01*
X226677773Y-116516287D01*
X226748728Y-116092277D01*
X226779699Y-116028392D01*
X226840292Y-115991392D01*
X226911270Y-115993026D01*
X226970097Y-116032773D01*
X226998097Y-116098015D01*
X226999000Y-116113073D01*
X226999000Y-159873000D01*
X226978998Y-159941121D01*
X226925342Y-159987614D01*
X226873000Y-159999000D01*
X63127000Y-159999000D01*
X63058879Y-159978998D01*
X63012386Y-159925342D01*
X63001000Y-159873000D01*
X63001000Y-35127000D01*
X63021002Y-35058879D01*
X63074658Y-35012386D01*
X63127000Y-35001000D01*
X226873000Y-35001000D01*
X226941121Y-35021002D01*
G37*
%TD.AperFunction*%
%TD*%
M02*
