M48
; DRILL file {KiCad (6.0.11)} date Tue Aug  8 10:57:48 2023
; FORMAT={-:-/ absolute / metric / decimal}
; #@! TF.CreationDate,2023-08-08T10:57:48-03:00
; #@! TF.GenerationSoftware,Kicad,Pcbnew,(6.0.11)
; #@! TF.FileFunction,MixedPlating,1,2
FMAT,2
METRIC
; #@! TA.AperFunction,Plated,PTH,ComponentDrill
T1C1.000
; #@! TA.AperFunction,Plated,PTH,ComponentDrill
T2C1.400
; #@! TA.AperFunction,Plated,PTH,ComponentDrill
T3C3.200
; #@! TA.AperFunction,Plated,PTH,ComponentDrill
T4C9.700
%
G90
G05
T1
X158.725Y-57.0
X158.725Y-68.583
X158.725Y-80.166
X158.725Y-91.749
X158.725Y-103.331
X158.725Y-114.914
X158.725Y-126.497
X158.725Y-138.08
X161.265Y-57.0
X161.265Y-68.583
X161.265Y-80.166
X161.265Y-91.749
X161.265Y-103.331
X161.265Y-114.914
X161.265Y-126.497
X161.265Y-138.08
T2
X114.277Y-57.0
X114.277Y-62.08
X114.277Y-82.333
X114.277Y-87.413
X114.277Y-107.667
X114.277Y-112.747
X114.277Y-133.0
X114.277Y-138.08
X220.0Y-79.72
X220.0Y-84.8
X220.0Y-89.88
X220.0Y-94.96
X220.0Y-100.04
X220.0Y-105.12
X220.0Y-110.2
X220.0Y-115.28
T3
X68.0Y-40.0
X68.0Y-155.0
X222.0Y-40.0
X222.0Y-155.0
T4
X80.0Y-64.0
X80.0Y-97.0
X80.0Y-130.0
T0
M30
